<mxfile host="app.diagrams.net" modified="2024-05-27T15:17:24.645Z" agent="Mozilla/5.0 (Macintosh; Intel Mac OS X 10_15_7) AppleWebKit/605.1.15 (KHTML, like Gecko) Version/16.6 Safari/605.1.15" version="24.4.9" etag="KYTj49HQdQe5CSEMduUY" type="github">
  <diagram name="Page-1" id="ApxW7FmgqJ9tfPUbWCkn">
    <mxGraphModel>
      <root>
        <mxCell id="0" />
        <mxCell id="1" parent="0" />
      </root>
    </mxGraphModel>
  </diagram>
</mxfile>
